<?xml version="1.0" encoding="UTF-8"?>
<svg id="Layer_1" data-name="Layer 1" xmlns="http://www.w3.org/2000/svg" viewBox="0 0 1031.39 345.86">
  <defs>
    <style>
      .cls-1, .cls-2 {
        isolation: isolate;
      }

      .cls-2 {
        font-family: MalayalamMN, 'Malayalam MN';
        font-size: 114px;
      }

      .cls-3 {
        letter-spacing: -.05em;
      }

      .cls-4 {
        fill: none;
        stroke: #000;
        stroke-miterlimit: 10;
        stroke-width: 4px;
      }

      .cls-5 {
        letter-spacing: 0em;
      }
    </style>
  </defs>
  <g class="cls-1">
    <text class="cls-2" transform="translate(20.48 204.54)"><tspan x="0" y="0">Maria Manners</tspan><tspan class="cls-3" x="797.33" y="0"> </tspan><tspan x="815.26" y="0">A</tspan><tspan class="cls-5" x="889.12" y="0">r</tspan><tspan x="939.39" y="0">t</tspan></text>
    <text class="cls-2" transform="translate(817.81 204.54)"><tspan x="0" y="0"> </tspan></text>
  </g>
  <g>
    <g>
      <path class="cls-4" d="M126.09,58.76c-9.29,36-54.66,54.84-89.52,41.29C8.67,89.21-5.15,57.8,5.69,29.91,14.37,7.59,39.49-3.47,61.8,5.21c17.85,6.94,26.7,27.04,19.76,44.89-5.55,14.28-21.63,21.36-35.91,15.81-11.43-4.44-17.09-17.3-12.65-28.73,3.55-9.14,13.84-13.67,22.98-10.12,7.31,2.84,10.94,11.07,8.09,18.39-2.27,5.85-8.86,8.75-14.71,6.48-4.68-1.82-7-7.09-5.18-11.77"/>
      <path class="cls-4" d="M82.15,48.7C94.64,13.43,133.88-4.52,169.14,7.97c28.21,9.99,42.98,40.96,33,69.17-7.99,22.57-32.77,34.39-55.34,26.4-18.06-6.39-27.51-26.21-21.12-44.27,5.11-14.44,20.97-22.01,35.42-16.89,11.56,4.09,17.61,16.78,13.51,28.33-3.27,9.24-13.42,14.09-22.67,10.81-7.4-2.62-11.27-10.74-8.65-18.13,2.09-5.92,8.59-9.01,14.51-6.92,4.73,1.68,7.21,6.87,5.54,11.6"/>
    </g>
    <g>
      <path class="cls-4" d="M330.15,58.51c-9.29,36-54.66,54.84-89.52,41.29-27.9-10.84-41.72-42.25-30.88-70.14,8.67-22.32,33.8-33.38,56.11-24.7,17.85,6.94,26.7,27.04,19.76,44.89-5.55,14.28-21.63,21.36-35.91,15.81-11.43-4.44-17.09-17.3-12.65-28.73,3.55-9.14,13.84-13.67,22.98-10.12,7.31,2.84,10.94,11.07,8.09,18.39-2.27,5.85-8.86,8.75-14.71,6.48-4.68-1.82-7-7.09-5.18-11.77"/>
      <path class="cls-4" d="M286.21,48.45c12.49-35.27,51.73-53.22,86.99-40.73,28.21,9.99,42.98,40.96,33,69.17-7.99,22.57-32.77,34.39-55.34,26.4-18.06-6.39-27.51-26.21-21.12-44.27,5.11-14.44,20.97-22.01,35.42-16.89,11.56,4.09,17.61,16.78,13.51,28.33-3.27,9.24-13.42,14.09-22.67,10.81-7.4-2.62-11.27-10.74-8.65-18.13,2.09-5.92,8.59-9.01,14.51-6.92,4.73,1.68,7.21,6.87,5.54,11.6"/>
    </g>
    <g>
      <path class="cls-4" d="M533.45,58.96c-9.29,36-54.66,54.84-89.52,41.29-27.9-10.84-41.72-42.25-30.88-70.14,8.67-22.32,33.8-33.38,56.11-24.7,17.85,6.94,26.7,27.04,19.76,44.89-5.55,14.28-21.63,21.36-35.91,15.81-11.43-4.44-17.09-17.3-12.65-28.73,3.55-9.14,13.84-13.67,22.98-10.12,7.31,2.84,10.94,11.07,8.09,18.39-2.27,5.85-8.86,8.75-14.71,6.48-4.68-1.82-7-7.09-5.18-11.77"/>
      <path class="cls-4" d="M489.5,48.9c12.49-35.27,51.73-53.22,86.99-40.73,28.21,9.99,42.98,40.96,33,69.17-7.99,22.57-32.77,34.39-55.34,26.4-18.06-6.39-27.51-26.21-21.12-44.27,5.11-14.44,20.97-22.01,35.42-16.89,11.56,4.09,17.61,16.78,13.51,28.33-3.27,9.24-13.42,14.09-22.67,10.81-7.4-2.62-11.27-10.74-8.65-18.13,2.09-5.92,8.59-9.01,14.51-6.92,4.73,1.68,7.21,6.87,5.54,11.6"/>
    </g>
    <g>
      <path class="cls-4" d="M736.74,58.96c-9.29,36-54.66,54.84-89.52,41.29-27.9-10.84-41.72-42.25-30.88-70.14,8.67-22.32,33.8-33.38,56.11-24.7,17.85,6.94,26.7,27.04,19.76,44.89-5.55,14.28-21.63,21.36-35.91,15.81-11.43-4.44-17.09-17.3-12.65-28.73,3.55-9.14,13.84-13.67,22.98-10.12,7.31,2.84,10.94,11.07,8.09,18.39-2.27,5.85-8.86,8.75-14.71,6.48-4.68-1.82-7-7.09-5.18-11.77"/>
      <path class="cls-4" d="M692.8,48.9c12.49-35.27,51.73-53.22,86.99-40.73,28.21,9.99,42.98,40.96,33,69.17-7.99,22.57-32.77,34.39-55.34,26.4-18.06-6.39-27.51-26.21-21.12-44.27,5.11-14.44,20.97-22.01,35.42-16.89,11.56,4.09,17.61,16.78,13.51,28.33-3.27,9.24-13.42,14.09-22.67,10.81-7.4-2.62-11.27-10.74-8.65-18.13,2.09-5.92,8.59-9.01,14.51-6.92,4.73,1.68,7.21,6.87,5.54,11.6"/>
    </g>
    <g>
      <path class="cls-4" d="M940.04,58.96c-9.29,36-54.66,54.84-89.52,41.29-27.9-10.84-41.72-42.25-30.88-70.14,8.67-22.32,33.8-33.38,56.11-24.7,17.85,6.94,26.7,27.04,19.76,44.89-5.55,14.28-21.63,21.36-35.91,15.81-11.43-4.44-17.09-17.3-12.65-28.73,3.55-9.14,13.84-13.67,22.98-10.12,7.31,2.84,10.94,11.07,8.09,18.39-2.27,5.85-8.86,8.75-14.71,6.48-4.68-1.82-7-7.09-5.18-11.77"/>
      <path class="cls-4" d="M896.09,48.9c12.49-35.27,51.73-53.22,86.99-40.73,28.21,9.99,42.98,40.96,33,69.17-7.99,22.57-32.77,34.39-55.34,26.4-18.06-6.39-27.51-26.21-21.12-44.27,5.11-14.44,20.97-22.01,35.42-16.89,11.56,4.09,17.61,16.78,13.51,28.33-3.27,9.24-13.42,14.09-22.67,10.81-7.4-2.62-11.27-10.74-8.65-18.13,2.09-5.92,8.59-9.01,14.51-6.92,4.73,1.68,7.21,6.87,5.54,11.6"/>
    </g>
  </g>
  <g>
    <g>
      <path class="cls-4" d="M136.28,296.38c-9.29,36-54.66,54.84-89.52,41.29-27.9-10.84-41.72-42.25-30.88-70.14,8.67-22.32,33.8-33.38,56.11-24.7,17.85,6.94,26.7,27.04,19.76,44.89-5.55,14.28-21.63,21.36-35.91,15.81-11.43-4.44-17.09-17.3-12.65-28.73,3.55-9.14,13.84-13.67,22.98-10.12,7.31,2.84,10.94,11.07,8.09,18.39-2.27,5.85-8.86,8.75-14.71,6.48-4.68-1.82-7-7.09-5.18-11.77"/>
      <path class="cls-4" d="M92.34,286.32c12.49-35.27,51.73-53.22,86.99-40.73,28.21,9.99,42.98,40.96,33,69.17-7.99,22.57-32.77,34.39-55.34,26.4-18.06-6.39-27.51-26.21-21.12-44.27,5.11-14.44,20.97-22.01,35.42-16.89,11.56,4.09,17.61,16.78,13.51,28.33-3.27,9.24-13.42,14.09-22.67,10.81-7.4-2.62-11.27-10.74-8.65-18.13,2.09-5.92,8.59-9.01,14.51-6.92,4.73,1.68,7.21,6.87,5.54,11.6"/>
    </g>
    <g>
      <path class="cls-4" d="M340.34,296.14c-9.29,36-54.66,54.84-89.52,41.29-27.9-10.84-41.72-42.25-30.88-70.14,8.67-22.32,33.8-33.38,56.11-24.7,17.85,6.94,26.7,27.04,19.76,44.89-5.55,14.28-21.63,21.36-35.91,15.81-11.43-4.44-17.09-17.3-12.65-28.73,3.55-9.14,13.84-13.67,22.98-10.12,7.31,2.84,10.94,11.07,8.09,18.39-2.27,5.85-8.86,8.75-14.71,6.48-4.68-1.82-7-7.09-5.18-11.77"/>
      <path class="cls-4" d="M296.4,286.08c12.49-35.27,51.73-53.22,86.99-40.73,28.21,9.99,42.98,40.96,33,69.17-7.99,22.57-32.77,34.39-55.34,26.4-18.06-6.39-27.51-26.21-21.12-44.27,5.11-14.44,20.97-22.01,35.42-16.89,11.56,4.09,17.61,16.78,13.51,28.33-3.27,9.24-13.42,14.09-22.67,10.81-7.4-2.62-11.27-10.74-8.65-18.13,2.09-5.92,8.59-9.01,14.51-6.92,4.73,1.68,7.21,6.87,5.54,11.6"/>
    </g>
    <g>
      <path class="cls-4" d="M543.64,296.58c-9.29,36-54.66,54.84-89.52,41.29-27.9-10.84-41.72-42.25-30.88-70.14,8.67-22.32,33.8-33.38,56.11-24.7,17.85,6.94,26.7,27.04,19.76,44.89-5.55,14.28-21.63,21.36-35.91,15.81-11.43-4.44-17.09-17.3-12.65-28.73,3.55-9.14,13.84-13.67,22.98-10.12,7.31,2.84,10.94,11.07,8.09,18.39-2.27,5.85-8.86,8.75-14.71,6.48-4.68-1.82-7-7.09-5.18-11.77"/>
      <path class="cls-4" d="M499.69,286.52c12.49-35.27,51.73-53.22,86.99-40.73,28.21,9.99,42.98,40.96,33,69.17-7.99,22.57-32.77,34.39-55.34,26.4-18.06-6.39-27.51-26.21-21.12-44.27,5.11-14.44,20.97-22.01,35.42-16.89,11.56,4.09,17.61,16.78,13.51,28.33-3.27,9.24-13.42,14.09-22.67,10.81-7.4-2.62-11.27-10.74-8.65-18.13,2.09-5.92,8.59-9.01,14.51-6.92,4.73,1.68,7.21,6.87,5.54,11.6"/>
    </g>
    <g>
      <path class="cls-4" d="M746.93,296.58c-9.29,36-54.66,54.84-89.52,41.29-27.9-10.84-41.72-42.25-30.88-70.14,8.67-22.32,33.8-33.38,56.11-24.7,17.85,6.94,26.7,27.04,19.76,44.89-5.55,14.28-21.63,21.36-35.91,15.81-11.43-4.44-17.09-17.3-12.65-28.73,3.55-9.14,13.84-13.67,22.98-10.12,7.31,2.84,10.94,11.07,8.09,18.39-2.27,5.85-8.86,8.75-14.71,6.48-4.68-1.82-7-7.09-5.18-11.77"/>
      <path class="cls-4" d="M702.99,286.52c12.49-35.27,51.73-53.22,86.99-40.73,28.21,9.99,42.98,40.96,33,69.17-7.99,22.57-32.77,34.39-55.34,26.4-18.06-6.39-27.51-26.21-21.12-44.27,5.11-14.44,20.97-22.01,35.42-16.89,11.56,4.09,17.61,16.78,13.51,28.33-3.27,9.24-13.42,14.09-22.67,10.81-7.4-2.62-11.27-10.74-8.65-18.13,2.09-5.92,8.59-9.01,14.51-6.92,4.73,1.68,7.21,6.87,5.54,11.6"/>
    </g>
    <g>
      <path class="cls-4" d="M950.23,296.58c-9.29,36-54.66,54.84-89.52,41.29-27.9-10.84-41.72-42.25-30.88-70.14,8.67-22.32,33.8-33.38,56.11-24.7,17.85,6.94,26.7,27.04,19.76,44.89-5.55,14.28-21.63,21.36-35.91,15.81-11.43-4.44-17.09-17.3-12.65-28.73,3.55-9.14,13.84-13.67,22.98-10.12,7.31,2.84,10.94,11.07,8.09,18.39-2.27,5.85-8.86,8.75-14.71,6.48-4.68-1.82-7-7.09-5.18-11.77"/>
      <path class="cls-4" d="M906.28,286.52c12.49-35.27,51.73-53.22,86.99-40.73,28.21,9.99,42.98,40.96,33,69.17-7.99,22.57-32.77,34.39-55.34,26.4-18.06-6.39-27.51-26.21-21.12-44.27,5.11-14.44,20.97-22.01,35.42-16.89,11.56,4.09,17.61,16.78,13.51,28.33-3.27,9.24-13.42,14.09-22.67,10.81-7.4-2.62-11.27-10.74-8.65-18.13,2.09-5.92,8.59-9.01,14.51-6.92,4.73,1.68,7.21,6.87,5.54,11.6"/>
    </g>
  </g>
</svg>